<?xml version="1.0" encoding="UTF-8" standalone="no"?>
<!DOCTYPE svg PUBLIC "-//W3C//DTD SVG 1.1//EN" "http://www.w3.org/Graphics/SVG/1.1/DTD/svg11.dtd">
<svg width="100%" height="100%" viewBox="0 0 64 64" version="1.1" xmlns="http://www.w3.org/2000/svg" xmlns:xlink="http://www.w3.org/1999/xlink" xml:space="preserve" xmlns:serif="http://www.serif.com/" style="fill-rule:evenodd;clip-rule:evenodd;stroke-linejoin:round;stroke-miterlimit:2;">
    <g id="marker-green.svg" transform="matrix(0.64,0,0,0.64,32,32)">
        <g transform="matrix(1,0,0,1,-50,-50)">
            <g transform="matrix(1.24658,0,0,1.24658,-11.0825,-14.1923)">
                <g transform="matrix(1.33333,0,0,1.33333,-13,-31.3333)">
                    <ellipse cx="46.5" cy="89.5" rx="4.5" ry="1.5" style="fill-opacity:0.29;"/>
                </g>
                <g transform="matrix(1,0,0,1.23592,-1,-8.40175)">
                    <path d="M52,45.618L52,76.382C52,77.275 51.104,78 50,78C48.896,78 48,77.275 48,76.382L48,45.618C48,44.725 48.896,44 50,44C51.104,44 52,44.725 52,45.618Z" style="fill:white;"/>
                </g>
                <g transform="matrix(0.75038,0,0,0.75038,3.22682,-0.517477)">
                    <circle cx="61" cy="46" r="28" style="fill:white;"/>
                </g>
                <g transform="matrix(0.684524,0,0,0.684524,7.24405,2.5119)">
                    <circle cx="61" cy="46" r="28" style="fill:rgb(0,176,57);"/>
                </g>
                <g transform="matrix(0.297619,0,0,0.297619,30.8452,20.3095)">
                    <circle cx="61" cy="46" r="28" style="fill:white;"/>
                </g>
            </g>
        </g>
    </g>
</svg>
